<?xml version="1.0" encoding="utf-8"?>
<!-- Generator: Adobe Illustrator 16.0.0, SVG Export Plug-In . SVG Version: 6.00 Build 0)  -->
<!DOCTYPE svg PUBLIC "-//W3C//DTD SVG 1.1//EN" "http://www.w3.org/Graphics/SVG/1.1/DTD/svg11.dtd">
<svg version="1.1" id="Layer_1" xmlns="http://www.w3.org/2000/svg" xmlns:xlink="http://www.w3.org/1999/xlink" x="0px" y="0px"
	 width="391px" height="843px" viewBox="254.5 25.5 391 843" enable-background="new 254.5 25.5 391 843" xml:space="preserve">
<path display="none" fill="#FFFFFF" d="M0.899,900.898c0-299.999,0-600,0-900c300.299,0,600.599,0,900.897,0c0,300,0,600,0,900
	C601.498,900.898,301.199,900.898,0.899,900.898z M510.807,382.696c0.218,0.138,0.433,0.272,0.646,0.413
	c1.189-1.448,2.425-2.866,3.574-4.352c9.03-11.662,19.823-20.809,34.588-24.331c15.892-3.792,31.675,3.699,36.608,17.588
	c3.219,9.04,4.131,18.332,2.479,27.875c-0.562,3.248-0.457,6.611-0.656,9.925c24.127-14.54,41.875-33.457,45.721-61.666
	c3.424-25.081-7.393-45.902-22.59-65.852c5.61-24.943-1.102-46.883-21.371-64.514c-1.139-0.99-1.544-3.043-1.888-4.686
	c-1.132-5.4-1.831-10.898-3.148-16.247c-1.951-7.921-6.75-14.188-12.688-19.27c3.388-6.08,6.837-11.536,9.582-17.327
	c9.868-20.824,14.803-42.214,7.881-65.222c-7.678-25.519-33.286-47.916-59.78-50.309c-24.214-2.187-45.493,4.452-60.964,24.499
	c-9.343,12.105-13.879,26.452-17.683,40.962c-2.106,8.034-4.538,16.272-0.812,24.636c0.302,0.674-0.229,1.908-0.686,2.7
	c-2.729,4.727-7.629,5.88-12.322,7.423c-9.297,3.057-17.182,8.021-21.202,17.381c-1.151,2.688-2.502,3.432-5.282,3.545
	c-13.862,0.564-24.208,7.022-30.74,19.308c-3.862,7.261-5.722,15.118-6.002,23.303c-0.085,2.487-0.844,3.417-3.397,3.421
	c-3.438,0.005-6.91,0.227-10.307,0.749c-12.042,1.851-22.978,5.697-29.734,16.956c-0.681,1.135-2.233,2.082-3.562,2.441
	c-11.396,3.078-17.828,11.359-20.52,21.906c-4.546,17.82-8.417,35.859-11.46,53.993c-1.135,6.76-3.984,11.554-8.952,15.23
	c-4.528,3.354-9.717,5.815-14.633,8.642c-0.961,0.552-2.004,0.96-3.786,1.802c7.093,3.992,13.965,5.86,21.171,6.239
	c3.389,0.178,4.265,1.412,4.247,4.624c-0.086,15.803,1.771,31.408,5.3,46.812c0.874,3.815,1.971,7.58,2.965,11.368
	c0.43-0.037,0.861-0.075,1.291-0.112c0.322-1.544,0.706-3.078,0.958-4.633c3.172-19.625,8.327-38.656,17.166-56.551
	c14.238-28.827,35.485-48.009,68.918-51.535c28.942-3.053,57.851-6.052,87.005-5.149c10.162,0.315,19.857,2.646,28.882,7.471
	c12.354,6.607,19.649,16.82,18.271,30.915c-1.308,13.331-4.335,26.521-7.104,39.667C515.356,369.507,512.835,376.05,510.807,382.696
	z M545.64,720.057c-6.18,0.376-8.414-1.081-11.397-6.253c-6.146-10.634-5.902-21.747-1.289-32.45
	c5.743-13.318,12.634-26.146,18.991-39.207c9.513-19.533,15.625-39.858,14.354-61.909c-0.311-5.396,1.77-9.562,6.606-12.336
	c10.589-6.077,16.271-16.188,20.56-26.92c2.153-5.395,3.06-11.616,3.031-17.462c-0.027-7.009-1.309-14.249-7.514-18.985
	c-9.748-7.446-23.766-4.479-29.047,10.861c-0.521,1.512-0.08,3.352-0.089,5.035c1.662-0.303,3.467-0.297,4.964-0.969
	c3.521-1.583,5.134-0.952,6.069,2.825c1.313,5.283-1.312,10.743-6.589,13.445c-6.93,3.549-14.146,3.313-21.453,1.427
	c-14.094-3.646-25.796-11.763-37.504-19.928c-6.753-4.709-13.597-9.316-20.646-13.562c-7.45-4.48-15.638-5.431-23.814-2.412
	c-6.962,2.568-13.606,2.587-20.504,0.021c-2.479-0.923-5.239-1.294-7.903-1.497c-9.783-0.746-17.583,4.124-25.186,9.327
	c-14.94,10.225-29.016,21.912-46.63,27.6c-7.943,2.562-15.877,2.783-23.575-0.87c-4.966-2.354-7.409-6.38-7.023-11.962
	c0.35-5.047,2.646-6.269,7.032-3.907c1.078,0.58,2.813,1.288,3.532,0.826c0.811-0.521,1.184-2.315,1.107-3.521
	c-0.41-6.585-7.806-14.623-14.571-16.065c-7.937-1.69-15.209,1.54-19.188,8.346c-2.565,4.391-1.993,9.098-2.349,13.875
	c-0.955,12.815,3.493,23.54,11.149,33.225c3.134,3.962,6.735,7.605,10.466,11.022c6.496,5.949,7.915,10.819,5.022,19.081
	c-2.976,8.5-3.534,17.306-2.839,26.181c1.601,20.416,7.348,39.716,16.145,58.143c3.571,7.482,4.501,15.361,4.625,23.577
	c0.19,12.714,0.53,25.465,1.785,38.104c0.525,5.293,2.833,10.771,5.62,15.388c3.765,6.229,11.737,7.575,16.324,3.599
	c1.108-0.961,1.545-2.695,2.291-4.074c-1.232-0.563-2.416-1.453-3.704-1.646c-4.971-0.737-7.178-2.915-7.422-7.935
	c-0.377-7.734,2.851-14.022,8.427-19.053c1.476-1.329,3.948-1.551,5.963-2.281c0.56,2.037,1.589,4.07,1.604,6.11
	c0.132,18.478,2.004,36.466,12.259,52.628c1.386,2.186,1.771,5.395,1.573,8.049c-0.125,1.692-1.905,4.124-3.442,4.599
	c-1.403,0.433-3.511-1.271-5.248-2.146c-0.712-0.36-1.265-1.036-2.415-2.017c-1.277,5.409-0.73,9.9,2.901,13.318
	c4.633,4.361,10.333,4.304,16.055,2.465c4.857-1.561,7.399-5.309,7.519-10.14c0.092-3.815-0.358-7.862-1.599-11.453
	c-3.242-9.43-0.101-17.696,3.854-25.9c0.565-1.183,1.957-1.964,3.812-3.745c0.4,2.512,0.812,3.874,0.804,5.229
	c-0.058,6.6-0.129,13.195-0.366,19.786c-0.49,13.646,2.058,26.213,12.057,36.396c1.983,2.021,3.745,4.308,5.329,6.656
	c4.174,6.199,8.856,12.183,12.112,18.848c4.344,8.894,0.346,14.134-9.381,13.562c-0.256-0.015-0.526,0.229-0.786,0.359
	c1.205,6.969,7.396,10.973,14.301,8.312c3.866-1.484,7.847-4.13,10.334-7.356c2.723-3.536,3.784-8.354,5.568-12.606
	c2.954,2.794,6.306,5.966,9.654,9.141c0.353-0.194,0.698-0.392,1.052-0.582c-2.367-15.811,1.832-30.188,8.437-44.275
	c4.105-8.757,7.088-18.04,10.607-27.075c0.189-0.496,0.685-0.879,1.447-1.823c4.29,12.195-1.855,23.001-2.768,34.333
	c22.693-21.288,33.646-47.283,32.714-78.229C538.508,731.69,545.45,728.241,545.64,720.057z"/>
<path fill="#FFFFFF" stroke="#000000" stroke-width="2" stroke-miterlimit="10" d="M510.807,382.696
	c2.028-6.646,4.554-13.188,5.979-19.961c2.771-13.146,5.801-26.336,7.104-39.667c1.384-14.096-5.92-24.306-18.271-30.917
	c-9.021-4.825-18.718-7.156-28.882-7.471c-29.154-0.903-58.062,2.096-87.004,5.149c-33.434,3.526-54.681,22.708-68.918,51.535
	c-8.84,17.895-13.994,36.925-17.167,56.551c-0.251,1.555-0.635,3.089-0.958,4.633c-0.43,0.037-0.861,0.075-1.291,0.112
	c-0.995-3.788-2.091-7.552-2.965-11.368c-3.53-15.401-5.386-31.009-5.3-46.812c0.018-3.212-0.858-4.445-4.247-4.624
	c-7.206-0.379-14.078-2.247-21.171-6.239c1.781-0.842,2.825-1.25,3.786-1.802c4.916-2.824,10.105-5.286,14.633-8.642
	c4.968-3.679,7.817-8.474,8.952-15.23c3.043-18.133,6.914-36.172,11.46-53.993c2.691-10.547,9.123-18.828,20.52-21.906
	c1.33-0.359,2.881-1.307,3.562-2.441c6.757-11.258,17.692-15.104,29.734-16.956c3.396-0.522,6.869-0.743,10.307-0.749
	c2.554-0.004,3.312-0.934,3.397-3.421c0.28-8.186,2.14-16.042,6.002-23.303c6.533-12.285,16.875-18.743,30.741-19.308
	c2.776-0.113,4.127-0.857,5.278-3.545c4.021-9.36,11.905-14.324,21.202-17.381c4.693-1.543,9.599-2.696,12.322-7.423
	c0.457-0.792,0.985-2.025,0.686-2.7c-3.728-8.364-1.296-16.603,0.812-24.636c3.804-14.51,8.34-28.856,17.683-40.962
	c15.475-20.047,36.75-26.685,60.964-24.499c26.494,2.393,52.104,24.79,59.78,50.309c6.922,23.008,1.987,44.398-7.881,65.222
	c-2.745,5.791-6.194,11.248-9.582,17.327c5.942,5.082,10.737,11.348,12.691,19.27c1.314,5.349,2.018,10.847,3.146,16.247
	c0.344,1.643,0.749,3.696,1.888,4.687c20.271,17.63,26.981,39.571,21.371,64.514c15.197,19.947,26.014,40.771,22.593,65.849
	c-3.849,28.211-21.597,47.129-45.724,61.665c0.199-3.311,0.094-6.674,0.656-9.921c1.65-9.542,0.736-18.834-2.479-27.875
	c-4.938-13.89-20.723-21.38-36.61-17.588c-14.763,3.522-25.556,12.669-34.588,24.331c-1.149,1.483-2.383,2.901-3.574,4.352
	C511.235,382.971,511.021,382.833,510.807,382.696z"/>
<path fill="#FFFFFF" stroke="#000000" stroke-width="2" stroke-miterlimit="10" d="M545.64,720.057
	c-0.188,8.188-7.132,11.638-18.179,9.141c0.932,30.939-10.021,56.938-32.714,78.229c0.908-11.332,7.058-22.137,2.767-34.333
	c-0.766,0.945-1.257,1.327-1.446,1.824c-3.521,9.035-6.503,18.318-10.607,27.075c-6.604,14.087-10.804,28.469-8.438,44.271
	c-0.352,0.194-0.697,0.392-1.05,0.582c-3.353-3.172-6.704-6.343-9.654-9.137c-1.784,4.256-2.85,9.07-5.568,12.604
	c-2.487,3.229-6.469,5.872-10.334,7.358c-6.902,2.657-13.096-1.347-14.303-8.32c0.262-0.127,0.528-0.366,0.787-0.354
	c9.728,0.565,13.726-4.673,9.382-13.566c-3.255-6.664-7.938-12.645-12.112-18.845c-1.584-2.352-3.346-4.639-5.329-6.658
	c-9.999-10.18-12.546-22.751-12.057-36.393c0.232-6.591,0.312-13.19,0.364-19.786c0.013-1.359-0.398-2.722-0.802-5.232
	c-1.856,1.782-3.249,2.565-3.812,3.744c-3.952,8.206-7.101,16.479-3.854,25.904c1.237,3.59,1.688,7.636,1.599,11.453
	c-0.116,4.831-2.658,8.579-7.519,10.139c-5.722,1.836-11.421,1.897-16.055-2.464c-3.633-3.418-4.179-7.91-2.901-13.322
	c1.15,0.98,1.703,1.655,2.415,2.021c1.737,0.88,3.844,2.579,5.248,2.146c1.538-0.472,3.317-2.899,3.442-4.596
	c0.196-2.656-0.188-5.864-1.573-8.049c-10.255-16.162-12.127-34.151-12.259-52.628c-0.016-2.04-1.044-4.073-1.604-6.11
	c-2.015,0.729-4.487,0.952-5.963,2.281c-5.576,5.023-8.804,11.312-8.427,19.052c0.245,5.018,2.452,7.194,7.422,7.932
	c1.288,0.191,2.472,1.078,3.704,1.646c-0.746,1.379-1.183,3.112-2.291,4.074c-4.586,3.979-12.56,2.635-16.324-3.603
	c-2.787-4.611-5.095-10.092-5.62-15.384c-1.254-12.639-1.595-25.39-1.785-38.104c-0.124-8.217-1.054-16.096-4.625-23.575
	c-8.796-18.43-14.545-37.729-16.145-58.146c-0.695-8.875-0.137-17.677,2.839-26.177c2.893-8.263,1.474-13.132-5.022-19.081
	c-3.73-3.417-7.333-7.062-10.466-11.025c-7.656-9.682-12.104-20.402-11.149-33.222c0.356-4.781-0.216-9.487,2.349-13.875
	c3.979-6.806,11.252-10.039,19.188-8.346c6.766,1.439,14.161,9.479,14.571,16.062c0.076,1.203-0.298,3.002-1.107,3.522
	c-0.719,0.462-2.454-0.246-3.532-0.826c-4.386-2.36-6.683-1.141-7.032,3.907c-0.386,5.581,2.058,9.604,7.023,11.962
	c7.698,3.651,15.632,3.434,23.575,0.869c17.614-5.688,31.688-17.375,46.63-27.603c7.604-5.202,15.396-10.071,25.186-9.326
	c2.664,0.202,5.422,0.573,7.903,1.497c6.895,2.565,13.542,2.549,20.504-0.021c8.181-3.021,16.364-2.072,23.813,2.412
	c7.05,4.241,13.894,8.851,20.646,13.56c11.708,8.165,23.41,16.281,37.504,19.93c7.31,1.893,14.523,2.122,21.453-1.429
	c5.277-2.701,7.902-8.162,6.589-13.442c-0.938-3.776-2.548-4.407-6.073-2.824c-1.497,0.672-3.298,0.666-4.96,0.969
	c0.005-1.688-0.435-3.527,0.085-5.036c5.285-15.343,19.303-18.312,29.05-10.864c6.202,4.739,7.483,11.98,7.515,18.988
	c0.021,5.843-0.878,12.068-3.031,17.461c-4.286,10.734-9.971,20.841-20.56,26.918c-4.842,2.777-6.917,6.944-6.606,12.336
	c1.27,22.053-4.846,42.376-14.355,61.913c-6.356,13.062-13.247,25.887-18.99,39.207c-4.613,10.703-4.854,21.816,1.289,32.45
	C537.226,718.976,539.46,720.433,545.64,720.057z M457.943,615.952c11.969-2.64,23.772-3.037,29.438-15.657
	c0.789-1.757,3.877-3.751,5.673-3.554c5.858,0.644,8.583-3.024,10.898-7.01c2.543-4.383,4.424-9.146,6.538-13.771
	c1.493-3.268,0.086-4.133-3.179-4.94c-5.277-1.312-10.786-2.827-15.353-5.64c-8.367-5.147-15.995-11.481-24.158-16.991
	c-7.134-4.811-12.126-11.021-14.697-19.229c-0.47-1.486-1.404-2.825-2.566-5.099c-1.056,2.138-1.858,3.356-2.292,4.697
	c-2.224,6.878-6.008,12.669-11.542,17.354c-3.418,2.893-6.575,6.104-10.099,8.854c-9.979,7.791-20.329,14.925-33.473,16.211
	c-2.729,0.271-3.969,1.561-2.657,4.15c3.089,6.104,6.104,12.278,9.691,18.089c1.001,1.621,3.858,2.795,5.934,2.906
	c4.066,0.219,6.972,1.744,8.65,5.323c5.641,12.009,17.276,11.493,28.453,14.348c-0.771-4.014-1.376-7.037-1.925-10.07
	c-1.359-7.519-2.82-15.021-3.992-22.564c-0.863-5.558,1.321-7.247,6.535-5.153c5.094,2.046,10.008,1.447,14.854-0.564
	c3.691-1.528,5.03,0.203,5.296,3.525c0.105,1.327,0.021,2.708-0.228,4.021c-1.42,7.604-2.92,15.188-4.377,22.783
	C458.933,610.275,458.544,612.593,457.943,615.952z"/>
<path display="none" fill="#FFFFFF" d="M457.943,615.952c0.601-3.359,0.985-5.677,1.432-7.984
	c1.457-7.595,2.957-15.183,4.377-22.784c0.245-1.312,0.333-2.688,0.229-4.02c-0.27-3.322-1.604-5.057-5.3-3.525
	c-4.847,2.016-9.76,2.61-14.854,0.564c-5.214-2.094-7.398-0.4-6.535,5.153c1.171,7.547,2.633,15.05,3.992,22.564
	c0.548,3.033,1.156,6.061,1.925,10.07c-11.177-2.854-22.812-2.339-28.453-14.349c-1.682-3.578-4.583-5.104-8.648-5.322
	c-2.074-0.111-4.935-1.285-5.936-2.906c-3.588-5.811-6.603-11.979-9.69-18.089c-1.312-2.594-0.072-3.883,2.656-4.15
	c13.143-1.286,23.493-8.42,33.472-16.211c3.521-2.751,6.68-5.966,10.099-8.854c5.533-4.686,9.318-10.477,11.542-17.354
	c0.434-1.341,1.236-2.562,2.292-4.696c1.162,2.271,2.1,3.607,2.566,5.098c2.571,8.212,7.563,14.423,14.697,19.229
	c8.163,5.508,15.791,11.842,24.158,16.991c4.562,2.812,10.071,4.328,15.353,5.643c3.265,0.809,4.672,1.674,3.179,4.938
	c-2.114,4.624-3.995,9.394-6.538,13.771c-2.315,3.981-5.04,7.649-10.898,7.01c-1.796-0.197-4.884,1.797-5.673,3.554
	C481.72,612.915,469.912,613.312,457.943,615.952z"/>
<path fill="#A05525" d="M457.806,142.505c0,4.577-2.604,8.288-5.818,8.288c-3.222,0-5.822-3.71-5.822-8.288s2.604-8.287,5.822-8.287
	C455.202,134.218,457.806,137.927,457.806,142.505z"/>
<ellipse fill="#A05525" cx="466.485" cy="150.792" rx="8.68" ry="8.05"/>
<ellipse fill="#A05525" cx="487.369" cy="158.325" rx="10.417" ry="9.47"/>
<path fill="#A05525" d="M498.511,164.319c0,5.492,4.734,9.944,10.575,9.944c5.838,0,10.573-4.452,10.573-9.944
	c0-5.489-4.735-9.94-10.573-9.94C503.245,154.379,498.511,158.831,498.511,164.319z"/>
<path fill="#A05525" d="M521.553,168.98c0,5.1,4.452,9.232,9.944,9.232s9.938-4.132,9.938-9.232c0-5.097-4.444-9.229-9.938-9.229
	S521.553,163.884,521.553,168.98z"/>
<path fill="#A05525" d="M543.333,173.475c0,5.057,3.042,9.156,6.789,9.156c3.746,0,6.788-4.099,6.788-9.156
	c0-5.054-3.042-9.153-6.788-9.153C546.375,164.322,543.333,168.421,543.333,173.475z"/>
<ellipse fill="#A05525" cx="566.854" cy="175.132" rx="6.154" ry="9.076"/>
</svg>
